<svg width="291" height="206" viewBox="0 0 291 206" fill="none" xmlns="http://www.w3.org/2000/svg">
<path d="M24.3592 199.209L21.4057 200.23L14.2783 179.609L17.2319 178.588L20.2202 187.234L44.7616 178.751L45.9123 182.081L21.3709 190.563L24.3592 199.209Z" fill="black"/>
<path d="M39.9568 160.979L10.886 162.06L10.7551 158.54L23.7007 158.059L23.1244 142.558L10.1788 143.039L10.0479 139.519L39.1187 138.438L39.2496 141.958L26.2472 142.442L26.8235 157.943L39.8259 157.459L39.9568 160.979Z" fill="black"/>
<path d="M40.653 127.548L12.4628 120.365L16.7978 103.352L19.826 104.123L16.3609 117.723L25.8861 120.15L29.1268 107.431L32.155 108.203L28.9143 120.922L38.4946 123.363L42.0159 109.543L45.0441 110.314L40.653 127.548Z" fill="black"/>
<path d="M56.6603 86.9884L33.7066 69.1164L44.4926 55.2635L46.9583 57.1833L38.3365 68.2567L46.0923 74.2955L54.1556 63.9394L56.6214 65.8592L48.5581 76.2153L56.3587 82.289L65.1202 71.0363L67.5859 72.9561L56.6603 86.9884Z" fill="black"/>
<path d="M81.772 36.0572L78.9102 38.1114C78.1501 37.4098 77.3349 36.8992 76.4645 36.5798C75.6018 36.2549 74.7185 36.0962 73.8148 36.1038C72.9132 36.0982 72.0235 36.2473 71.1457 36.5509C70.268 36.8546 69.4368 37.2881 68.6521 37.8513C67.2212 38.8784 66.1845 40.1705 65.5419 41.7275C64.907 43.2789 64.7525 45.0043 65.0784 46.9036C65.412 48.7973 66.3132 50.7673 67.7821 52.8137C69.251 54.86 70.8292 56.3441 72.5167 57.266C74.2119 58.1823 75.896 58.5879 77.569 58.4827C79.2497 58.372 80.8056 57.8031 82.2364 56.776C83.0211 56.2127 83.6977 55.5639 84.2662 54.8294C84.8348 54.0949 85.2633 53.3035 85.552 52.4552C85.8428 51.5937 85.9723 50.7023 85.9404 49.7809C85.9107 48.8464 85.6878 47.9107 85.2717 46.9737L88.1335 44.9195C88.7851 46.2819 89.1686 47.6444 89.284 49.007C89.3995 50.3695 89.2743 51.6892 88.9085 52.9659C88.5372 54.2349 87.9488 55.4208 87.1434 56.5235C86.3456 57.6207 85.3505 58.5972 84.1581 59.4532C82.1426 60.8999 79.9967 61.6942 77.7205 61.8361C75.4443 61.9779 73.2046 61.464 71.0013 60.2946C68.798 59.1251 66.8018 57.2941 65.0126 54.8016C63.2235 52.3091 62.1273 49.832 61.7242 47.3704C61.321 44.9088 61.5507 42.6224 62.4133 40.5112C63.2758 38.4 64.7148 36.621 66.7304 35.1742C67.9228 34.3183 69.1664 33.6879 70.4611 33.2831C71.7635 32.8727 73.0781 32.6985 74.4047 32.7603C75.7259 32.8145 77.0134 33.1142 78.2674 33.6595C79.5159 34.1971 80.6841 34.9963 81.772 36.0572Z" fill="black"/>
<path d="M121.46 26.5752C122.38 29.5022 122.646 32.1978 122.26 34.662C121.873 37.1263 120.94 39.2262 119.46 40.9619C117.981 42.6976 116.058 43.9374 113.691 44.6814C111.324 45.4255 109.037 45.509 106.831 44.932C104.625 44.3549 102.658 43.1666 100.931 41.3668C99.2034 39.5671 97.8798 37.2038 96.9597 34.2768C96.0396 31.3498 95.7729 28.6542 96.1597 26.19C96.5464 23.7257 97.4795 21.6258 98.9589 19.8901C100.438 18.1544 102.361 16.9146 104.728 16.1706C107.095 15.4265 109.382 15.343 111.588 15.92C113.795 16.4971 115.761 17.6854 117.489 19.4852C119.216 21.2849 120.539 23.6482 121.46 26.5752ZM118.207 27.5975C117.452 25.1945 116.412 23.2928 115.089 21.8924C113.774 20.4891 112.301 19.5772 110.67 19.1569C109.048 18.7336 107.397 18.7861 105.717 19.3144C104.036 19.8426 102.648 20.7457 101.55 22.0237C100.462 23.2988 99.7761 24.8894 99.4917 26.7953C99.2164 28.6984 99.4565 30.8515 100.212 33.2545C100.967 35.6575 102.002 37.5606 103.317 38.9639C104.641 40.3644 106.114 41.2762 107.736 41.6994C109.367 42.1198 111.022 42.0659 112.703 41.5376C114.383 41.0094 115.767 40.1078 116.855 38.8326C117.952 37.5546 118.639 35.9641 118.914 34.061C119.198 32.155 118.963 30.0005 118.207 27.5975Z" fill="black"/>
<path d="M154.21 13.1765L154.671 10.0855L176.251 13.2987L175.791 16.3896L166.743 15.0424L162.919 40.7252L159.434 40.2064L163.258 14.5236L154.21 13.1765Z" fill="black"/>
<path d="M180.907 44.8915L192.916 18.3947L201.869 22.4521C203.939 23.3902 205.478 24.5139 206.485 25.8232C207.497 27.1238 208.044 28.5311 208.128 30.0452C208.211 31.5592 207.899 33.0968 207.191 34.658C206.484 36.2192 205.537 37.4589 204.352 38.3772C203.166 39.2955 201.757 39.8006 200.125 39.8926C198.496 39.9759 196.656 39.5524 194.603 38.6221L187.358 35.3386L188.671 32.4405L195.813 35.6771C197.227 36.3182 198.46 36.6271 199.51 36.604C200.569 36.5848 201.464 36.2836 202.196 35.7005C202.941 35.1126 203.554 34.2883 204.034 33.2274C204.515 32.1664 204.737 31.1493 204.7 30.176C204.663 29.2027 204.306 28.303 203.631 27.4769C202.959 26.6422 201.907 25.9004 200.475 25.2515L194.834 22.6951L184.116 46.3457L180.907 44.8915ZM198.774 38.6409L199.9 53.499L196.174 51.8103L195.151 36.9992L198.774 38.6409Z" fill="black"/>
<path d="M227.314 37.6181L210.034 61.0208L207.2 58.9283L224.48 35.5256L227.314 37.6181Z" fill="black"/>
<path d="M218.993 68.0299L240.868 48.8524L247.572 56.5001C248.908 58.0239 249.746 59.5117 250.087 60.9634C250.435 62.4089 250.38 63.7608 249.921 65.0191C249.47 66.2711 248.71 67.3654 247.642 68.3018C246.702 69.1258 245.779 69.6389 244.874 69.8411C243.974 70.0504 243.109 70.0406 242.279 69.8115C241.454 69.5896 240.682 69.2402 239.962 68.7634L239.748 68.9507C240.292 69.6575 240.647 70.5364 240.813 71.5875C240.979 72.6385 240.863 73.7415 240.465 74.8964C240.067 76.0513 239.291 77.1344 238.138 78.1457C237.041 79.107 235.836 79.7224 234.523 79.9918C233.211 80.2612 231.826 80.083 230.371 79.4573C228.916 78.8315 227.433 77.657 225.922 75.9338L218.993 68.0299ZM223.665 68.6187L228.272 73.8738C229.789 75.6041 231.2 76.539 232.506 76.6785C233.826 76.8189 234.966 76.4677 235.928 75.6249C236.668 74.9757 237.186 74.1877 237.482 73.261C237.785 72.328 237.819 71.3471 237.585 70.3184C237.358 69.2835 236.826 68.289 235.989 67.3348L231.27 61.9515L223.665 68.6187ZM233.577 59.9289L237.884 64.8422C238.583 65.6397 239.371 66.2216 240.246 66.5877C241.127 66.9611 242.018 67.0867 242.919 66.9647C243.825 66.8498 244.663 66.4552 245.432 65.781C246.394 64.9383 246.916 63.8888 246.998 62.6327C247.088 61.3703 246.496 60.0128 245.222 58.5601L240.84 53.5614L233.577 59.9289Z" fill="black"/>
<path d="M237.842 92.0384L264.08 79.4748L271.663 95.3099L268.844 96.6595L262.783 84.0017L253.918 88.2468L259.586 100.085L256.767 101.434L251.099 89.5964L242.182 93.866L248.341 106.729L245.523 108.078L237.842 92.0384Z" fill="black"/>
<path d="M281.046 156.228L251.956 156.32L251.945 152.91L274.736 136.986L274.735 136.702L251.894 136.774L251.883 133.251L280.974 133.16L280.984 136.569L258.137 152.55L258.138 152.834L281.035 152.762L281.046 156.228Z" fill="black"/>
<path d="M263.111 192.651C264.118 192.65 265.06 192.524 265.939 192.272C266.823 192.032 267.631 191.663 268.361 191.164C269.089 190.674 269.724 190.054 270.267 189.305C270.809 188.555 271.244 187.681 271.569 186.681C272.103 185.042 272.165 183.414 271.756 181.797C271.346 180.18 270.447 178.707 269.057 177.378C267.667 176.049 265.775 174.994 263.38 174.214C260.985 173.434 258.833 173.176 256.924 173.441C255.015 173.706 253.415 174.384 252.122 175.477C250.83 176.57 249.906 177.972 249.348 179.683C248.832 181.268 248.715 182.773 248.998 184.2C249.286 185.638 249.942 186.898 250.964 187.978C251.993 189.07 253.354 189.891 255.047 190.443L254.496 191.399L257.206 183.079L260.177 184.047L256.746 194.581L253.775 193.614C251.497 192.872 249.674 191.74 248.307 190.219C246.937 188.708 246.065 186.95 245.692 184.946C245.325 182.954 245.499 180.86 246.215 178.663C247.013 176.213 248.29 174.249 250.046 172.77C251.8 171.299 253.908 170.392 256.37 170.049C258.83 169.714 261.518 170.022 264.435 170.973C266.623 171.685 268.496 172.619 270.052 173.773C271.614 174.939 272.836 176.263 273.718 177.745C274.599 179.228 275.128 180.814 275.305 182.505C275.481 184.196 275.28 185.928 274.703 187.702C274.227 189.16 273.564 190.448 272.712 191.565C271.867 192.694 270.882 193.623 269.758 194.353C268.64 195.094 267.419 195.617 266.094 195.923C264.779 196.232 263.409 196.293 261.985 196.109L263.111 192.651Z" fill="black"/>
</svg>
